<svg xmlns="http://www.w3.org/2000/svg" viewBox="0 0 48 48" width="24" height="24">
  <path
    fill="#FFC107"
    d="M43.6 20.5H42V20H24v8h11.3C33.9 31.9 29.3 35 24 35c-6.6 0-12-5.4-12-12s5.4-12 12-12c3 0 5.7 1.1 7.8 3l5.7-5.7C34.2 5.1 29.4 3 24 3 12.3 3 3 12.3 3 24s9.3 21 21 21c10.5 0 19.4-7.6 21-17.5v-7z"
  />
  <path
    fill="#FF3D00"
    d="M6.3 14.7l6.6 4.8C14.4 15.1 18.8 12 24 12c3 0 5.7 1.1 7.8 3l5.7-5.7C34.2 5.1 29.4 3 24 3 15.5 3 8.1 8.2 6.3 14.7z"
  />
  <path
    fill="#4CAF50"
    d="M24 45c5.2 0 10-1.8 13.6-4.9l-6.3-5.2c-2 1.4-4.6 2.1-7.3 2.1-5.3 0-9.9-3.1-12.1-7.6l-6.5 5C8.2 41.6 15.6 45 24 45z"
  />
  <path
    fill="#1976D2"
    d="M43.6 20.5H42V20H24v8h11.3c-1.3 3.8-4.9 7-9.3 7-5.3 0-9.9-3.1-12.1-7.6l-6.5 5C10.1 38.9 16.6 43 24 43c10.5 0 19.4-7.6 21-17.5v-7z"
  />
</svg>
